<?xml version="1.0" encoding="UTF-8" standalone="no"?>
<svg
   version="1.0"
   width="1024.000000pt"
   height="1024.000000pt"
   viewBox="0 0 1024.000000 1024.000000"
   preserveAspectRatio="xMidYMid meet"
   id="svg18"
   sodipodi:docname="alternadev_logo_vector.svg"
   inkscape:version="1.4 (86a8ad7, 2024-10-11)"
   xmlns:inkscape="http://www.inkscape.org/namespaces/inkscape"
   xmlns:sodipodi="http://sodipodi.sourceforge.net/DTD/sodipodi-0.dtd"
   xmlns="http://www.w3.org/2000/svg"
   xmlns:svg="http://www.w3.org/2000/svg">
  <defs
     id="defs18" />
  <sodipodi:namedview
     id="namedview18"
     pagecolor="#ffffff"
     bordercolor="#000000"
     borderopacity="0.25"
     inkscape:showpageshadow="2"
     inkscape:pageopacity="0.0"
     inkscape:pagecheckerboard="0"
     inkscape:deskcolor="#d1d1d1"
     inkscape:document-units="pt"
     inkscape:zoom="0.85473633"
     inkscape:cx="682.66667"
     inkscape:cy="682.66667"
     inkscape:window-width="5120"
     inkscape:window-height="1369"
     inkscape:window-x="1912"
     inkscape:window-y="-8"
     inkscape:window-maximized="1"
     inkscape:current-layer="svg18" />
  <metadata
     id="metadata1">
Created by potrace 1.16, written by Peter Selinger 2001-2019
</metadata>
  <path
     d="m 267.4,242.7 c -1.1,1.6 -3.8,7.1 -6.1,12.3 -2.2,5.2 -9.8,22.5 -16.8,38.5 -6.9,15.9 -20.7,47.7 -30.5,70.5 -9.8,22.8 -22.1,51.3 -27.4,63.2 -5.3,12 -11.3,25.9 -13.5,31 -7.3,17.4 -38,87.3 -44.6,101.3 -5.4,11.5 -13.6,32.5 -14.2,36.1 -0.8,4.7 2,7 9.3,7.6 3.2,0.3 15.4,0.6 26.9,0.7 l 21,0.2 2.6,-2.5 c 1.5,-1.3 5.7,-8.2 9.5,-15.1 3.7,-7 7.7,-13.3 8.9,-14 1.3,-0.8 7.2,-1.5 16.8,-1.7 12.3,-0.4 15,-0.8 16.7,-2.3 3.4,-3.1 2.5,-7.3 -3,-14.4 -12.5,-16 -13.7,-38.3 -3.8,-70.6 4.8,-15.9 11.9,-33 36.2,-88 9.9,-22.6 11.8,-26 13.8,-26.3 1.3,-0.1 2.8,0.1 3.5,0.6 2.2,1.4 32,64.8 39.8,84.6 6,15.3 11.1,34 12.6,46.6 3.5,27.7 -7.4,53.6 -27.4,65.4 -2.3,1.3 -8.4,3.8 -13.4,5.6 -10.6,3.7 -11.8,5.6 -5.5,8.6 5.5,2.6 25.2,3.2 36.3,1 15.6,-3.1 30.5,-12.2 40.3,-24.5 6.8,-8.7 8.1,-10.7 12.2,-20.3 8.1,-18.9 8.5,-43 1.2,-70.3 -4.5,-16.9 -18.2,-51 -33.2,-82.8 -2.5,-5.3 -4.6,-9.9 -4.6,-10.2 0,-0.3 -7.7,-18 -17.1,-39.3 -9.4,-21.3 -20.2,-45.9 -24.1,-54.7 -10.8,-24.8 -18,-39.5 -19.3,-39.5 -0.6,0 -2,1.2 -3.1,2.7 z"
     id="path1"
     style="fill:#1e8edc;stroke:none;stroke-width:0.1;fill-opacity:1" />
  <path
     d="m 268.7,478.2 c -6.6,8.8 -16.3,24.8 -21.2,35 -6.4,13.3 -8.5,22.8 -6.9,30.9 1.1,5 1,5.2 -3.6,13.2 -8.6,15 -24.2,39.9 -46,73.7 -6.2,9.6 -15.2,23.6 -20,31 -4.8,7.4 -13.2,20.4 -18.8,28.7 -12.6,19.1 -14.1,23.6 -10.3,31.2 3.6,6.9 10.2,9.5 17.5,6.7 2.3,-0.9 5.2,-2.7 6.4,-3.9 1.8,-2 32.8,-51 51.6,-81.7 3.9,-6.3 16.8,-27 28.5,-45.8 l 21.5,-34.4 5.5,-2.8 c 24.1,-12.3 26.9,-36 8.4,-71 -5.5,-10.5 -7.9,-14 -9.4,-14 -0.4,0 -1.9,1.5 -3.2,3.2 z"
     id="path4"
     style="fill:#064672;stroke:none;stroke-width:0.1;fill-opacity:1" />
  <g
     id="g18"
     style="fill:#064672;fill-opacity:1">
    <path
       d="m 421.8,454.7 -11.8,0.4 v 72.9 73 h 13 c 15.3,0 14.3,1.1 13.8,-14.5 -0.1,-5.5 -0.1,-37.5 0,-71 0.3,-58.4 0.3,-61 -1.5,-61.1 -1,0 -7.1,0.1 -13.5,0.3 z"
       id="path2"
       style="fill:#064672;stroke:none;stroke-width:0.1;fill-opacity:1" />
    <path
       d="m 481,473.8 c -7.6,0.2 -11.7,0.7 -12.2,1.5 -0.4,0.7 -0.8,6.2 -0.8,12.4 v 11.2 l -9.7,0.3 -9.8,0.3 -0.3,9.5 c -0.1,5.2 0.2,10.1 0.7,10.8 0.6,0.9 3.6,1.4 9.7,1.5 l 8.8,0.2 0.1,28 c 0.1,30.9 0.4,33.2 6,40.7 3.9,5.3 8.6,8.1 17.8,10.4 7.4,2 19.5,1.4 23.3,-1.1 2.3,-1.5 2.4,-1.9 2.4,-13.6 0,-11.1 -0.1,-12.1 -1.7,-11.6 -8.6,2.8 -10.2,3 -14.2,1.8 -7.4,-2.2 -7.6,-3.2 -7.6,-30.6 v -24 l 13.5,-0.2 13.5,-0.1 0.3,-9.4 c 0.4,-14.2 1.2,-13.4 -11.4,-13 -16.6,0.5 -15.5,1.4 -15.3,-13 0.1,-6.7 -0.3,-12.3 -0.7,-12.3 -0.5,0 -6.1,0.1 -12.4,0.3 z"
       id="path3"
       style="fill:#064672;stroke:none;stroke-width:0.1;fill-opacity:1" />
    <path
       d="m 565.5,497.3 c -18.3,6.1 -31.4,19.2 -35.7,35.6 -2.2,8.5 -2.3,25.6 -0.3,33.4 4.5,17.2 17.1,30 35,35.3 4.2,1.3 9.2,1.8 17,1.8 12,-0.1 21.3,-2.4 32.5,-8.3 6.2,-3.2 6.1,-2.5 2.4,-14.4 -2.6,-8.1 -3.6,-8.9 -7.7,-6.3 -3.4,2.2 -16.4,5.6 -24.2,6.2 -13,1.1 -23.8,-5.3 -28.1,-16.6 l -2.1,-5.5 34.6,-0.5 34.6,-0.5 0.3,-9.2 c 0.5,-15.5 -5,-28.4 -16.6,-39.6 -3.2,-3 -8.7,-6.9 -12.3,-8.7 -5.6,-2.9 -7.5,-3.3 -15.9,-3.7 -6.1,-0.2 -10.9,0.2 -13.5,1 z M 588,520 c 5,2.5 9,7.6 11.2,14 l 1.7,5 H 577.4 554 l 0.6,-2.8 c 1.7,-7.4 7,-13.8 13.8,-16.8 4.8,-2.1 15,-1.8 19.6,0.6 z"
       id="path5"
       style="fill:#064672;stroke:none;stroke-width:0.1;fill-opacity:1" />
    <path
       d="m 853.5,498.4 c -7.2,1.7 -12.4,3.8 -17.6,7.3 l -3.9,2.6 v 11.3 c 0,6.3 0.2,11.4 0.5,11.4 0.3,0 4.2,-1.9 8.8,-4.1 14.1,-7.2 19.8,-8.9 28.8,-8.9 6.5,0 8.6,0.4 10.9,2 3.8,2.7 7,9.6 7,15.1 v 4.4 l -12.3,-0.3 c -20.7,-0.6 -37.2,4 -44.6,12.3 -3.5,4.1 -7.1,14.7 -7.1,21.4 0,7.4 1.7,11.6 7.1,17.5 6.3,6.9 12.3,9.3 25.2,10.2 11.5,0.8 17.4,-0.7 27,-7 5.3,-3.5 6.7,-4 6.2,-2.5 -0.4,1.1 -0.1,3.5 0.5,5.4 l 1.2,3.5 h 12.2 c 6.8,0 12.6,-0.3 12.9,-0.6 0.3,-0.4 0.1,-1.6 -0.6,-2.8 -0.8,-1.5 -1.4,-12.6 -1.8,-37.6 -0.7,-40.1 -1,-42.5 -7.9,-50.3 -2.6,-2.9 -6.6,-5.9 -10.8,-7.9 -6.5,-3.2 -7,-3.3 -21.2,-3.5 -9.5,-0.2 -16.6,0.2 -20.5,1.1 z m 31.8,58.3 c 2.4,1.2 2.7,1.9 2.7,6.4 0,6 -1.7,9.5 -6.4,13.7 -9.1,7.9 -27.5,6.6 -31.2,-2.3 -3.3,-7.9 1.2,-14.9 11.2,-17.8 9.8,-2.8 18.1,-2.8 23.7,0 z"
       id="path6"
       style="fill:#064672;stroke:none;stroke-width:0.1;fill-opacity:1" />
    <path
       d="m 686.5,499.4 c -5.7,1.8 -8.3,3.3 -13.9,7.9 l -4.9,4.1 0.7,-5.8 0.8,-5.7 -13.4,0.3 -13.3,0.3 -0.6,49.5 c -0.3,27.2 -0.5,49.6 -0.5,49.7 0.1,0 6,0.3 13.1,0.4 l 13,0.3 0.5,-31.4 c 0.6,-34.8 0.7,-35.4 7.2,-40.4 6.1,-4.5 18.1,-6 26.1,-3.2 l 3.7,1.4 V 513 c 0,-13.4 -0.1,-13.8 -2.2,-14.4 -3.7,-0.9 -12,-0.6 -16.3,0.8 z"
       id="path7"
       style="fill:#064672;stroke:none;stroke-width:0.1;fill-opacity:1" />
    <path
       d="m 715.6,511.9 c -0.8,18.6 -0.8,86.9 0.2,87.4 0.4,0.3 6.3,0.6 13.2,0.8 l 12.5,0.4 -0.2,-26.5 c -0.3,-27.7 0.4,-35.5 3.8,-42.2 3.8,-7.5 15,-12.8 24,-11.3 5.3,0.9 11.5,6.4 12.9,11.3 0.6,2.2 1,17.2 1,35.8 v 32.2 l 8,0.7 c 4.3,0.4 10.2,0.4 12.9,0 l 5,-0.7 0.3,-34.1 c 0.4,-40 -0.2,-45.3 -5.9,-53.5 -7.4,-10.8 -13.4,-13.4 -31.4,-13.6 l -12.6,-0.1 -5.7,3.9 c -3.1,2.1 -7,5.4 -8.6,7.3 l -3,3.4 v -7 -7 l -12.9,-0.3 -12.8,-0.3 z"
       id="path8"
       style="fill:#064672;stroke:none;stroke-width:0.1;fill-opacity:1" />
  </g>
  <g
     id="g19"
     style="fill:#064672;fill-opacity:1">
    <path
       d="m 328.2,648.5 c 0.2,10.2 0.1,18.5 -0.1,18.5 -0.2,0 -1.7,-1.1 -3.3,-2.5 -6.3,-5.3 -10.8,-7 -18.8,-6.9 -9,0 -15.2,2.6 -21.8,9.2 -12.9,12.8 -13.7,36.7 -1.7,50 12.3,13.7 34.2,14.6 43.3,1.8 l 2.2,-3.1 v 5.8 5.7 h 8.5 8.5 V 678.5 630 h -8.5 -8.6 z m -12.7,24.4 c 4.9,2.2 10.1,7.9 11.4,12.5 1,3.9 0,15.1 -1.7,18.3 -1.9,3.4 -8,8.1 -12.1,9.4 -15.4,4.6 -27.6,-15.4 -19.3,-31.7 2.4,-4.7 4.6,-6.8 9.2,-8.8 4.6,-2 7.7,-1.9 12.5,0.3 z"
       id="path9"
       style="fill:#064672;stroke:none;stroke-width:0.1;fill-opacity:1" />
    <path
       d="m 783,649.1 v 19.1 l -4.6,-4.1 C 766.6,653.8 750,655 737.9,667 c -14,14 -12.5,41.9 2.9,53.7 12.9,9.9 29.8,9.4 39,-1.2 l 3.2,-3.6 v 5.6 5.5 h 8.3 8.4 l 0.6,-27.2 c 0.4,-14.9 0.7,-36.7 0.7,-48.5 V 630 h -9 -9 z m -12.4,23.8 c 13.7,6.2 16.6,25.7 5.1,35.8 -13.2,11.6 -29.7,2.5 -29.7,-16.6 0,-15.4 12.1,-24.9 24.6,-19.2 z"
       id="path10"
       style="fill:#064672;stroke:none;stroke-width:0.1;fill-opacity:1" />
    <path
       d="m 817.4,633.4 c -4.4,4.4 -4.5,8.3 -0.5,12.8 2.7,3 3.5,3.3 8.6,3.3 5.1,0 5.9,-0.3 8.6,-3.3 4.7,-5.2 3.4,-11.3 -3.1,-14.7 -5,-2.6 -9.8,-1.9 -13.6,1.9 z"
       id="path11"
       style="fill:#064672;stroke:none;stroke-width:0.1;fill-opacity:1" />
    <path
       d="m 607,649.2 v 8.8 h -6.9 c -6.9,0 -6.9,0 -7.6,3 -0.4,1.7 -0.4,4.8 0,7 l 0.7,4 h 6.9 6.9 v 21 c 0,16.3 0.3,21.7 1.4,23.8 1.9,3.7 7.5,8.9 10.9,10.1 3.9,1.5 19,1.4 20.5,-0.1 0.7,-0.7 1.2,-4.1 1.2,-8.1 0,-6.2 -0.2,-6.8 -1.7,-6.1 -1,0.4 -3.7,0.9 -6,1.2 -3.5,0.3 -4.6,0 -6.7,-2.2 L 624,709.1 V 690.5 672 h 9.5 9.5 v -7 -7 h -9.5 -9.5 v -8.5 c 0,-7.4 -0.2,-8.5 -1.7,-8.5 -1,-0.1 -4.8,-0.2 -8.5,-0.4 l -6.8,-0.2 z"
       id="path12"
       style="fill:#064672;stroke:none;stroke-width:0.1;fill-opacity:1" />
    <path
       d="m 381.3,657 c -5.2,1.2 -11.7,5.6 -17.2,11.5 -4,4.4 -5.6,7.2 -7.2,12.6 -5.7,18.7 2,36.8 19,44.8 5,2.3 6.8,2.6 16.6,2.6 10.3,0 11.5,-0.2 18.8,-3.3 8.5,-3.8 8.6,-3.8 6.1,-12.1 -1.2,-4.3 -1.8,-5.1 -3.2,-4.5 -16.7,7.4 -29.6,7.1 -36.9,-0.8 -2,-2.2 -4.3,-6.8 -4.3,-8.9 0,-0.5 10.1,-0.9 24.9,-0.9 h 24.8 l 0.7,-4.9 c 2.5,-18.6 -14.4,-37.3 -33.2,-37 -3.1,0.1 -7.1,0.4 -8.9,0.9 z m 19.4,15.6 c 3.5,2.6 6,6.2 6.9,9.6 l 0.6,2.8 h -17.7 -17.7 l 0.6,-2.8 c 1.8,-7.5 9.7,-12.6 18.9,-12 3.7,0.3 6.7,1.1 8.4,2.4 z"
       id="path13"
       style="fill:#064672;stroke:none;stroke-width:0.1;fill-opacity:1" />
    <path
       d="m 547.5,658.3 c -14.1,6.7 -18,23.6 -7.6,33 3.9,3.5 6,4.4 21.6,9.4 7.8,2.4 9.1,3.2 10,5.6 0.8,2.4 0.5,3.1 -1.8,5.5 -2.5,2.5 -3.4,2.7 -10.5,2.7 -6.6,0 -8.7,-0.5 -14.4,-3.2 -7.4,-3.5 -7,-3.6 -10.8,3.4 -2.8,5 -2.4,5.8 5.3,9.7 3.5,1.7 8,3 13.2,3.5 23.7,2.7 38.3,-7.8 34.5,-24.7 -2.1,-9.6 -7.3,-13.6 -22.5,-17.6 -12,-3.2 -14.5,-4.7 -14.5,-8.5 0,-8 14.3,-10.1 24.3,-3.5 4.5,3 5.5,2.5 8.8,-4.2 2.5,-5.2 2.1,-6 -5,-10.2 -4.1,-2.4 -5.8,-2.7 -15.1,-3 -9.4,-0.3 -11,0 -15.5,2.1 z"
       id="path14"
       style="fill:#064672;stroke:none;stroke-width:0.1;fill-opacity:1" />
    <path
       d="m 870.5,656.9 c -21,5.2 -31.9,30.5 -22.5,51.8 6.2,14 18.5,21 35.1,20.1 9.7,-0.6 16.8,-3.9 23.3,-10.8 7.5,-8 9.1,-12.5 9.1,-25.5 0,-10 -0.2,-11.5 -2.8,-16.7 -3.6,-7.3 -11.9,-15 -19.2,-17.7 -5.7,-2.2 -16.7,-2.7 -23,-1.2 z m 18,16.1 c 16.6,8 12.6,38.3 -5.4,40.7 -8.4,1.1 -17.7,-5.1 -20,-13.4 -5.3,-19 9.5,-35 25.4,-27.3 z"
       id="path15"
       style="fill:#064672;stroke:none;stroke-width:0.1;fill-opacity:1" />
    <path
       d="m 432.8,657.8 c -4.3,0.1 -7.8,0.5 -7.8,0.7 0,0.3 3.4,8.9 7.5,19.2 4.1,10.4 10.1,25.5 13.3,33.8 l 5.8,15 h 9.3 9.4 l 4.9,-12.5 c 2.7,-6.9 6.5,-16.6 8.5,-21.5 7.2,-18.1 12.3,-31.7 12.3,-33.1 0,-1.1 -1.8,-1.4 -8.3,-1.4 h -8.3 l -2.6,7.7 c -1.4,4.3 -4.5,13 -6.8,19.3 -2.3,6.3 -5.1,14.3 -6.3,17.7 -1.2,3.5 -2.4,6.3 -2.7,6.3 -0.3,0 -2,-4.9 -3.9,-10.8 -4.9,-15.6 -14.4,-40.5 -15.6,-40.7 -0.5,0 -4.5,0.1 -8.7,0.3 z"
       id="path16"
       style="fill:#064672;stroke:none;stroke-width:0.1;fill-opacity:1" />
    <path
       d="m 653,682.6 c 0,14.7 0.4,26.3 1.1,28.9 0.7,2.7 2.8,6.3 5.1,9 4.7,5.3 10.7,7.5 21,7.5 7.6,0 11.7,-1.3 16.6,-5.4 l 3.2,-2.8 v 3.7 3.6 l 8.8,-0.3 8.7,-0.3 0.3,-34.3 0.2,-34.3 -8.7,0.3 -8.8,0.3 -0.5,22.7 c -0.5,20.9 -0.7,22.9 -2.6,25.5 -2.9,4 -8,6.3 -14.1,6.3 -4.4,0 -5.8,-0.5 -8.5,-2.9 l -3.3,-2.9 -0.3,-24.6 -0.3,-24.6 h -8.9 -9 z"
       id="path17"
       style="fill:#064672;stroke:none;stroke-width:0.1;fill-opacity:1" />
    <path
       d="M 816,692.5 V 727 h 8.4 8.4 l 0.6,-3.1 c 0.3,-1.7 0.6,-17.3 0.6,-34.5 V 658 h -9 -9 z"
       id="path18"
       style="fill:#064672;stroke:none;stroke-width:0.1;fill-opacity:1" />
  </g>
</svg>
